<?xml version="1.0" standalone="no"?>
<svg version="1.0" xmlns="http://www.w3.org/2000/svg"
 width="361.000000pt" height="204.000000pt" viewBox="0 0 361.000000 204.000000"
 preserveAspectRatio="xMidYMid meet">

<g transform="translate(0.000000,204.000000) scale(0.100000,-0.100000)"
fill="#ffffff" stroke="none">
<path d="M1665 1848 c-193 -36 -364 -213 -397 -410 -10 -58 -10 -69 6 -92 23
-37 60 -48 133 -44 73 5 99 23 109 77 41 217 301 297 443 136 45 -52 63 -98
63 -165 1 -136 -99 -243 -240 -257 -123 -12 -145 -47 -140 -225 4 -151 10
-158 128 -158 99 0 120 14 127 87 5 50 6 51 52 68 107 40 225 144 275 243 75
148 74 333 -2 476 -38 72 -154 185 -224 219 -108 51 -220 67 -333 45z"/>
<path d="M822 1357 c-187 -187 -242 -248 -242 -267 0 -19 55 -80 243 -268 158
-158 249 -242 263 -242 24 0 44 18 44 39 0 9 -97 113 -215 231 -160 161 -215
222 -215 240 0 18 55 79 215 240 118 118 215 222 215 231 0 21 -20 39 -45 39
-13 0 -103 -83 -263 -243z"/>
<path d="M2422 1588 c-7 -7 -12 -19 -12 -27 0 -9 97 -113 215 -231 160 -161
215 -222 215 -240 0 -18 -55 -79 -215 -240 -118 -118 -215 -222 -215 -231 0
-21 20 -39 45 -39 13 0 103 83 263 243 187 187 242 248 242 267 0 19 -55 80
-243 268 -239 239 -265 260 -295 230z"/>
<path d="M1711 562 c-38 -20 -71 -73 -71 -112 0 -14 8 -41 18 -59 20 -38 73
-71 112 -71 62 0 130 68 130 130 0 40 -34 93 -71 112 -43 23 -76 23 -118 0z"/>
</g>
</svg>
